<svg width="1911" height="1239" viewBox="0 0 1911 1239" fill="none" xmlns="http://www.w3.org/2000/svg">
<g clip-path="url(#clip0_604_2)">
<path d="M137.112 255.544C132.275 276.023 129.976 299.24 142.878 317.567C148.362 325.429 156.41 331.304 165.748 334.263C175.201 336.963 185.167 337.553 194.892 335.988C216.897 333.05 236.454 322.004 258.096 317.715C267.646 315.823 277.782 315.197 286.976 318.84C293.864 321.569 301.12 327.055 301.153 334.882C301.187 342.919 293.943 348.253 286.74 350.724C277.127 354.021 267.137 352.745 257.167 352.33C246.429 351.882 235.479 352.818 226.559 359.155C218.886 364.926 213.002 372.613 209.547 381.382C205.063 391.868 203.243 403.143 200.376 414.084C197.813 423.921 194.188 433.473 189.56 442.582C180.478 460.436 167.748 476.338 152.132 489.334C144.43 495.721 135.073 502.228 124.554 502.813C116.442 503.265 106.58 499.98 103.453 492.061C102.291 488.642 102.405 484.94 103.774 481.593C105.144 478.246 107.683 475.466 110.954 473.731C117.906 470.35 125.478 475.173 127.723 481.793C128.312 483.319 128.518 484.957 128.324 486.575C128.131 488.192 127.542 489.742 126.608 491.098C124.5 494.128 129.578 496.96 131.672 493.951C136.534 486.964 133.993 477.568 128.038 471.972C125.134 469.118 121.25 467.38 117.113 467.083C112.976 466.786 108.869 467.95 105.557 470.357C102.116 472.882 99.5149 476.32 98.0725 480.249C96.6302 484.178 96.4094 488.427 97.4373 492.475C99.9384 501.173 108.807 506.706 117.664 508.076C128.601 509.769 139.126 505.627 147.955 499.642C156.813 493.481 164.867 486.312 171.942 478.29C186.327 462.349 197.14 443.717 203.705 423.561C210.161 403.625 210.63 377.29 229.813 363.826C239.684 356.899 251.779 357.667 263.352 358.303C273.569 358.864 283.535 358.762 292.907 354.305C300.646 350.625 306.89 343.832 307.019 335.178C307.15 326.441 300.713 319.416 293.129 315.435C273.093 304.92 249.033 313.401 229.35 320.426C209.556 327.49 186.957 335.782 165.921 328.348C156.212 324.712 148.395 317.515 144.185 308.334C139.091 297.924 138.366 286.112 139.543 274.815C140.237 268.833 141.314 262.899 142.768 257.046C143.605 253.505 137.951 251.993 137.112 255.544L137.112 255.544Z" fill="#3F3D56"/>
<path d="M448.525 494.666C420.11 492.503 453.639 474.382 455.884 446.999C456.962 433.849 463.416 421.65 473.828 413.087C484.239 404.523 497.754 400.295 511.399 401.334C525.045 402.373 537.703 408.593 546.59 418.626C555.476 428.659 559.863 441.683 558.785 454.832C556.541 482.215 476.94 496.829 448.525 494.666Z" fill="#F0F0F0"/>
<path d="M721.359 324.189C707.713 323.15 695.055 316.93 686.168 306.897C677.281 296.864 672.895 283.84 673.973 270.69C676.217 243.307 619.789 224.99 648.204 227.153C676.62 229.316 779.119 251.141 776.874 278.524C776.34 285.035 774.481 291.381 771.402 297.2C768.323 303.018 764.085 308.196 758.93 312.436C753.775 316.676 747.804 319.897 741.358 321.913C734.911 323.93 728.115 324.703 721.359 324.189V324.189Z" fill="#F0F0F0"/>
<path d="M783.553 261.769C787.298 269.255 785.09 277.904 780.145 284.368C774.52 291.719 765.572 295.343 756.394 296.541C746.542 297.693 736.55 296.9 727.026 294.21C717.839 291.655 708.305 286.179 706.41 276.395C705.147 269.874 708.034 262.914 715.061 261.107C717.879 260.42 720.834 260.444 723.64 261.178C726.446 261.912 729.008 263.329 731.08 265.295C736.915 271.147 736.471 280.541 732.762 287.338C728.401 295.333 719.674 299.744 710.701 301.2C700.033 302.931 689.314 300.513 679.279 297.073C668.371 293.334 657.79 288.678 647.103 284.401C626.261 276.061 604.971 268.226 582.558 264.904C548.321 259.83 507.687 267.731 486.728 296.657C475.414 312.272 472.209 331.855 474.644 350.485C477.212 370.132 486.158 388.186 498.003 404.173C504.275 412.489 511.124 420.387 518.502 427.813C520.904 430.063 522.557 432.951 523.252 436.11C523.946 439.268 523.651 442.554 522.402 445.55C515.909 460.924 489.949 456.024 488.014 440.177C487.135 432.976 491.304 425.56 496.514 420.675C502.425 415.347 509.874 411.87 517.877 410.702C534.722 407.991 552.529 414.01 565.405 424.465C579.952 436.275 588.142 454.224 592.455 471.697C597.367 491.59 597.617 512.05 598.084 532.385C598.561 553.194 599.382 574.249 605.577 594.334C610.615 610.5 618.392 625.752 628.595 639.472C648.97 667.114 677.936 687.8 711.309 698.541C719.381 701.065 727.659 702.934 736.055 704.127C739.342 704.597 739.735 699.637 736.462 699.169C699.862 693.94 666.205 674.844 642.111 648.002C630.037 634.611 620.494 619.281 613.917 602.712C606.06 582.755 604.067 561.556 603.426 540.374C602.771 518.742 603.128 496.913 598.633 475.604C594.66 456.765 586.867 437.688 572.433 423.962C566.02 417.805 558.377 412.966 549.968 409.737C541.559 406.508 532.557 404.956 523.507 405.175C506.765 405.922 488.863 414.808 483.887 431.27C482.603 435.012 482.415 439.023 483.345 442.862C484.275 446.7 486.286 450.217 489.157 453.024C492.646 456.213 496.983 458.408 501.688 459.366C506.393 460.325 511.281 460.008 515.811 458.452C520.732 456.401 524.685 452.658 526.901 447.953C529.117 443.248 529.437 437.916 527.799 432.996C526.422 429.384 524.209 426.121 521.327 423.456C506.223 407.912 492.363 390.518 484.842 370.278C477.826 351.399 476.387 329.683 484.478 310.898C499.795 275.336 544.246 264.65 580.455 269.62C604.152 272.873 626.589 281.519 648.54 290.362C659.748 294.878 670.885 299.897 682.51 303.354C692.918 306.449 704.087 308.003 714.81 305.465C724.169 303.249 732.771 298.005 737.305 289.616C741.423 281.996 742.133 272.327 737.236 264.862C730.155 254.069 710.604 251.641 703.479 263.764C698.751 271.807 701.074 282.108 707.283 288.779C714.243 296.258 724.667 299.313 734.643 300.855C753.493 303.768 776.705 301.479 786.79 283.537C788.983 279.943 790.255 275.898 790.501 271.735C790.746 267.573 789.958 263.415 788.201 259.605C787.889 259.034 787.36 258.602 786.723 258.4C786.087 258.198 785.395 258.242 784.792 258.523C784.189 258.804 783.723 259.299 783.492 259.905C783.261 260.51 783.283 261.179 783.553 261.769L783.553 261.769Z" fill="#3F3D56"/>
<path d="M1899.63 406.116C1928.05 403.953 1894.52 385.832 1892.27 358.449C1891.19 345.299 1884.74 333.1 1874.33 324.537C1863.92 315.973 1850.4 311.745 1836.76 312.784C1823.11 313.823 1810.45 320.043 1801.57 330.076C1792.68 340.109 1788.29 353.132 1789.37 366.282C1791.62 393.665 1871.22 408.279 1899.63 406.116Z" fill="#F0F0F0"/>
<path d="M1626.8 235.638C1640.44 234.6 1653.1 228.38 1661.99 218.347C1670.87 208.314 1675.26 195.29 1674.18 182.14C1671.94 154.757 1728.37 136.44 1699.95 138.603C1671.54 140.766 1569.04 162.591 1571.28 189.974C1571.82 196.485 1573.68 202.831 1576.75 208.65C1579.83 214.468 1584.07 219.646 1589.23 223.886C1594.38 228.126 1600.35 231.347 1606.8 233.363C1613.25 235.38 1620.04 236.153 1626.8 235.638V235.638Z" fill="#F0F0F0"/>
<path d="M1564.6 173.219C1560.86 180.705 1563.07 189.354 1568.01 195.817C1573.64 203.169 1582.58 206.793 1591.76 207.991C1601.61 209.143 1611.61 208.35 1621.13 205.66C1630.32 203.105 1639.85 197.628 1641.75 187.844C1643.01 181.323 1640.12 174.364 1633.09 172.557C1630.28 171.87 1627.32 171.894 1624.52 172.628C1621.71 173.361 1619.15 174.779 1617.08 176.745C1611.24 182.597 1611.69 191.99 1615.39 198.788C1619.75 206.783 1628.48 211.194 1637.45 212.65C1648.12 214.381 1658.84 211.963 1668.88 208.523C1679.78 204.784 1690.37 200.128 1701.05 195.851C1721.89 187.511 1743.19 179.676 1765.6 176.354C1799.84 171.279 1840.47 179.181 1861.43 208.107C1872.74 223.722 1875.95 243.305 1873.51 261.935C1870.94 281.582 1862 299.635 1850.15 315.623C1843.88 323.939 1837.03 331.837 1829.65 339.262C1827.25 341.513 1825.6 344.401 1824.9 347.559C1824.21 350.718 1824.51 354.004 1825.75 357C1832.25 372.374 1858.21 367.474 1860.14 351.626C1861.02 344.426 1856.85 337.009 1851.64 332.125C1845.73 326.797 1838.28 323.32 1830.28 322.152C1813.43 319.441 1795.63 325.46 1782.75 335.914C1768.2 347.725 1760.01 365.674 1755.7 383.146C1750.79 403.039 1750.54 423.5 1750.07 443.835C1749.59 464.644 1748.77 485.699 1742.58 505.784C1737.54 521.95 1729.76 537.201 1719.56 550.921C1699.19 578.564 1670.22 599.249 1636.85 609.99C1628.77 612.515 1620.5 614.384 1612.1 615.577C1608.81 616.047 1608.42 611.086 1611.69 610.619C1648.29 605.39 1681.95 586.294 1706.04 559.452C1718.12 546.06 1727.66 530.731 1734.24 514.161C1742.1 494.204 1744.09 473.005 1744.73 451.824C1745.39 430.192 1745.03 408.363 1749.52 387.053C1753.5 368.214 1761.29 349.138 1775.72 335.412C1782.14 329.255 1789.78 324.416 1798.19 321.187C1806.6 317.958 1815.6 316.406 1824.65 316.624C1841.39 317.372 1859.29 326.258 1864.27 342.72C1865.55 346.462 1865.74 350.473 1864.81 354.311C1863.88 358.15 1861.87 361.666 1859 364.473C1855.51 367.663 1851.17 369.858 1846.47 370.816C1841.76 371.774 1836.87 371.458 1832.35 369.902C1827.42 367.851 1823.47 364.108 1821.25 359.403C1819.04 354.698 1818.72 349.366 1820.36 344.446C1821.73 340.834 1823.95 337.571 1826.83 334.906C1841.93 319.362 1855.79 301.967 1863.31 281.727C1870.33 262.849 1871.77 241.132 1863.68 222.348C1848.36 186.785 1803.91 176.1 1767.7 181.07C1744 184.323 1721.57 192.969 1699.62 201.812C1688.41 206.328 1677.27 211.347 1665.65 214.804C1655.24 217.899 1644.07 219.453 1633.35 216.914C1623.99 214.699 1615.39 209.455 1610.85 201.066C1606.73 193.446 1606.02 183.777 1610.92 176.312C1618 165.519 1637.55 163.091 1644.68 175.213C1649.4 183.257 1647.08 193.557 1640.87 200.229C1633.91 207.708 1623.49 210.763 1613.51 212.305C1594.66 215.218 1571.45 212.928 1561.37 194.986C1559.17 191.393 1557.9 187.347 1557.66 183.185C1557.41 179.023 1558.2 174.864 1559.95 171.055C1560.27 170.484 1560.8 170.052 1561.43 169.85C1562.07 169.648 1562.76 169.692 1563.36 169.973C1563.97 170.253 1564.43 170.749 1564.66 171.355C1564.9 171.96 1564.87 172.629 1564.6 173.219L1564.6 173.219Z" fill="#3F3D56"/>
<path d="M900.164 794.564C900.164 799.422 898.162 804.082 894.597 807.517C891.032 810.953 886.197 812.883 881.155 812.883H672.482C665.938 812.883 659.661 810.377 655.034 805.918C650.406 801.458 647.806 795.41 647.806 789.103C647.806 783.219 650.07 777.544 654.16 773.175L785.006 633.411C803.369 613.59 816.777 595.714 825.228 579.782C833.36 565.059 837.706 548.671 837.902 531.994C837.902 511.111 831.657 495.093 819.168 483.94C806.676 472.789 788.86 467.214 765.721 467.214C734.414 467.214 703.364 477.347 672.57 497.613C670.263 499.137 667.644 500.166 664.888 500.629C662.133 501.092 659.307 500.979 656.601 500.297C653.895 499.616 651.373 498.382 649.206 496.678C647.038 494.975 645.276 492.843 644.038 490.426V490.426C642.036 486.554 641.491 482.132 642.495 477.915C643.499 473.699 645.991 469.949 649.544 467.305C663.652 457.187 679.215 449.107 695.744 443.32C718.443 434.967 742.525 430.65 766.823 430.576C802.819 430.576 831.287 439.514 852.228 457.391C873.166 475.27 883.635 499.43 883.635 529.87C883.623 551.512 878.438 572.861 868.482 592.26C858.375 612.263 841.569 634.653 818.066 659.429L706.213 776.245H881.155C886.197 776.245 891.032 778.175 894.597 781.611C898.162 785.046 900.164 789.706 900.164 794.564V794.564Z" fill="#B3B7FF"/>
<path d="M968.915 622.172C945.583 589.434 933.92 541.38 933.926 478.01C933.926 414.65 945.589 366.596 968.915 333.849C992.237 301.111 1026.31 284.739 1071.13 284.733C1115.94 284.733 1150.01 301.105 1173.34 333.849C1196.66 366.596 1208.32 414.472 1208.32 477.48C1208.32 540.849 1196.66 588.991 1173.34 621.906C1150 654.828 1115.93 671.288 1071.13 671.288C1026.3 671.288 992.235 654.916 968.915 622.172ZM1140.28 596.42C1155.15 570.932 1162.59 531.286 1162.59 477.48C1162.59 424.033 1155.24 384.74 1140.55 359.602C1125.86 334.472 1102.71 321.905 1071.13 321.902C1039.9 321.902 1016.85 334.469 1001.97 359.602C987.098 384.74 979.659 424.033 979.659 477.48C979.659 530.934 987.098 570.492 1001.97 596.154C1016.85 621.824 1039.9 634.656 1071.13 634.65C1102.34 634.65 1125.39 621.907 1140.28 596.42V596.42Z" fill="#B3B7FF"/>
<path d="M1500.14 794.564C1500.14 799.422 1498.14 804.082 1494.58 807.517C1491.01 810.953 1486.18 812.883 1481.13 812.883H1272.46C1265.92 812.883 1259.64 810.377 1255.01 805.918C1250.38 801.458 1247.78 795.41 1247.78 789.103V789.103C1247.78 783.219 1250.05 777.544 1254.14 773.175L1384.98 633.411C1403.35 613.59 1416.76 595.714 1425.21 579.782C1433.34 565.059 1437.68 548.671 1437.88 531.994C1437.88 511.111 1431.64 495.093 1419.15 483.94C1406.65 472.789 1388.84 467.214 1365.7 467.214C1334.39 467.214 1303.34 477.347 1272.55 497.613C1270.24 499.137 1267.62 500.166 1264.87 500.629C1262.11 501.092 1259.29 500.979 1256.58 500.298C1253.87 499.616 1251.35 498.382 1249.18 496.678C1247.02 494.975 1245.25 492.843 1244.02 490.426V490.426C1242.02 486.554 1241.47 482.132 1242.47 477.915C1243.48 473.699 1245.97 469.949 1249.52 467.305C1263.63 457.187 1279.19 449.107 1295.72 443.32C1318.42 434.967 1342.5 430.65 1366.8 430.576C1402.8 430.576 1431.27 439.514 1452.21 457.391C1473.14 475.27 1483.61 499.43 1483.61 529.87C1483.6 551.512 1478.42 572.861 1468.46 592.26C1458.35 612.263 1441.55 634.653 1418.04 659.429L1306.19 776.245H1481.13C1486.18 776.245 1491.01 778.175 1494.58 781.611C1498.14 785.046 1500.14 789.706 1500.14 794.564V794.564Z" fill="#B3B7FF"/>
<path d="M1792.48 602.821C1792.48 605.226 1791.99 607.608 1791.03 609.831C1790.08 612.054 1788.68 614.073 1786.91 615.774C1785.15 617.475 1783.05 618.824 1780.75 619.745C1778.44 620.666 1775.97 621.139 1773.47 621.139H1564.8C1558.25 621.139 1551.98 618.634 1547.35 614.175C1542.72 609.715 1540.12 603.667 1540.12 597.36C1540.12 591.476 1542.39 585.801 1546.48 581.432L1677.32 441.667C1695.69 421.847 1709.09 403.971 1717.54 388.039C1725.68 373.316 1730.02 356.928 1730.22 340.25C1730.22 319.368 1723.97 303.35 1711.48 292.197C1698.99 281.046 1681.18 275.471 1658.04 275.471C1626.73 275.471 1595.68 285.604 1564.89 305.87C1562.58 307.394 1559.96 308.423 1557.2 308.886C1554.45 309.349 1551.62 309.236 1548.92 308.554C1546.21 307.873 1543.69 306.638 1541.52 304.935C1539.35 303.232 1537.59 301.1 1536.35 298.683V298.683C1534.35 294.81 1533.81 290.389 1534.81 286.172C1535.82 281.955 1538.31 278.205 1541.86 275.562C1555.97 265.444 1571.53 257.364 1588.06 251.576C1610.76 243.224 1634.84 238.906 1659.14 238.833C1695.14 238.833 1723.6 247.771 1744.54 265.647C1765.48 283.527 1775.95 307.687 1775.95 338.127C1775.94 359.769 1770.75 381.117 1760.8 400.517C1750.69 420.52 1733.89 442.91 1710.38 467.686L1598.53 584.502H1773.47C1775.97 584.502 1778.44 584.976 1780.75 585.896C1783.05 586.817 1785.15 588.166 1786.91 589.867C1788.68 591.568 1790.08 593.588 1791.03 595.81C1791.99 598.033 1792.48 600.415 1792.48 602.821Z" fill="#B3B7FF"/>
<path d="M933.041 345.604C942.762 345.604 950.642 340.321 950.642 333.804C950.642 327.287 942.762 322.004 933.041 322.004C923.32 322.004 915.439 327.287 915.439 333.804C915.439 340.321 923.32 345.604 933.041 345.604Z" fill="#E6E6E6"/>
<path d="M1044.77 372.153C1054.49 372.153 1062.37 366.87 1062.37 360.353C1062.37 353.836 1054.49 348.553 1044.77 348.553C1035.05 348.553 1027.17 353.836 1027.17 360.353C1027.17 366.87 1035.05 372.153 1044.77 372.153Z" fill="#3F3D56"/>
<path d="M888.656 429.676C898.377 429.676 906.258 424.393 906.258 417.876C906.258 411.359 898.377 406.076 888.656 406.076C878.935 406.076 871.055 411.359 871.055 417.876C871.055 424.393 878.935 429.676 888.656 429.676Z" fill="#FF6584"/>
<path d="M1396.8 518.172C1406.52 518.172 1414.4 512.89 1414.4 506.373C1414.4 499.856 1406.52 494.573 1396.8 494.573C1387.08 494.573 1379.2 499.856 1379.2 506.373C1379.2 512.89 1387.08 518.172 1396.8 518.172Z" fill="#E6E6E6"/>
<path d="M1508.53 544.722C1518.25 544.722 1526.13 539.439 1526.13 532.922C1526.13 526.405 1518.25 521.122 1508.53 521.122C1498.81 521.122 1490.93 526.405 1490.93 532.922C1490.93 539.439 1498.81 544.722 1508.53 544.722Z" fill="#3F3D56"/>
<path d="M1352.41 602.245C1362.13 602.245 1370.02 596.962 1370.02 590.445C1370.02 583.928 1362.13 578.646 1352.41 578.646C1342.69 578.646 1334.81 583.928 1334.81 590.445C1334.81 596.962 1342.69 602.245 1352.41 602.245Z" fill="#FF6584"/>
<path d="M1363.13 249.732C1372.85 249.732 1380.73 244.449 1380.73 237.932C1380.73 231.416 1372.85 226.133 1363.13 226.133C1353.41 226.133 1345.53 231.416 1345.53 237.932C1345.53 244.449 1353.41 249.732 1363.13 249.732Z" fill="#E6E6E6"/>
<path d="M1474.86 276.281C1484.58 276.281 1492.46 270.998 1492.46 264.481C1492.46 257.965 1484.58 252.682 1474.86 252.682C1465.14 252.682 1457.26 257.965 1457.26 264.481C1457.26 270.998 1465.14 276.281 1474.86 276.281Z" fill="#3F3D56"/>
<path d="M1318.74 333.804C1328.46 333.804 1336.34 328.521 1336.34 322.004C1336.34 315.488 1328.46 310.205 1318.74 310.205C1309.02 310.205 1301.14 315.488 1301.14 322.004C1301.14 328.521 1309.02 333.804 1318.74 333.804Z" fill="#FF6584"/>
<path d="M1065.97 749.432C1072.11 749.432 1077.09 746.093 1077.09 741.974C1077.09 737.856 1072.11 734.517 1065.97 734.517C1059.83 734.517 1054.85 737.856 1054.85 741.974C1054.85 746.093 1059.83 749.432 1065.97 749.432Z" fill="#E6E6E6"/>
<path d="M1136.58 766.211C1142.73 766.211 1147.71 762.872 1147.71 758.754C1147.71 754.635 1142.73 751.296 1136.58 751.296C1130.44 751.296 1125.46 754.635 1125.46 758.754C1125.46 762.872 1130.44 766.211 1136.58 766.211Z" fill="#3F3D56"/>
<path d="M1037.92 802.565C1044.06 802.565 1049.04 799.227 1049.04 795.108C1049.04 790.989 1044.06 787.651 1037.92 787.651C1031.77 787.651 1026.79 790.989 1026.79 795.108C1026.79 799.227 1031.77 802.565 1037.92 802.565Z" fill="#FF6584"/>
<path d="M1041.48 498.691C1047.62 498.691 1052.6 495.352 1052.6 491.233C1052.6 487.115 1047.62 483.776 1041.48 483.776C1035.34 483.776 1030.36 487.115 1030.36 491.233C1030.36 495.352 1035.34 498.691 1041.48 498.691Z" fill="#E6E6E6"/>
<path d="M1112.09 515.47C1118.24 515.47 1123.22 512.131 1123.22 508.012C1123.22 503.894 1118.24 500.555 1112.09 500.555C1105.95 500.555 1100.97 503.894 1100.97 508.012C1100.97 512.131 1105.95 515.47 1112.09 515.47Z" fill="#3F3D56"/>
<path d="M1013.43 551.824C1019.57 551.824 1024.55 548.485 1024.55 544.367C1024.55 540.248 1019.57 536.909 1013.43 536.909C1007.29 536.909 1002.3 540.248 1002.3 544.367C1002.3 548.485 1007.29 551.824 1013.43 551.824Z" fill="#FF6584"/>
<path d="M689.452 542.939C695.596 542.939 700.576 539.6 700.576 535.482C700.576 531.363 695.596 528.024 689.452 528.024C683.309 528.024 678.328 531.363 678.328 535.482C678.328 539.6 683.309 542.939 689.452 542.939Z" fill="#E6E6E6"/>
<path d="M760.066 559.718C766.209 559.718 771.19 556.379 771.19 552.261C771.19 548.142 766.209 544.803 760.066 544.803C753.922 544.803 748.941 548.142 748.941 552.261C748.941 556.379 753.922 559.718 760.066 559.718Z" fill="#3F3D56"/>
<path d="M661.399 596.073C667.543 596.073 672.524 592.734 672.524 588.615C672.524 584.497 667.543 581.158 661.399 581.158C655.256 581.158 650.275 584.497 650.275 588.615C650.275 592.734 655.256 596.073 661.399 596.073Z" fill="#FF6584"/>
<path d="M1557.28 352.671C1563.42 352.671 1568.4 349.332 1568.4 345.213C1568.4 341.095 1563.42 337.756 1557.28 337.756C1551.13 337.756 1546.15 341.095 1546.15 345.213C1546.15 349.332 1551.13 352.671 1557.28 352.671Z" fill="#E6E6E6"/>
<path d="M1627.89 369.45C1634.04 369.45 1639.02 366.111 1639.02 361.993C1639.02 357.874 1634.04 354.535 1627.89 354.535C1621.75 354.535 1616.77 357.874 1616.77 361.993C1616.77 366.111 1621.75 369.45 1627.89 369.45Z" fill="#3F3D56"/>
<path d="M1529.23 405.804C1535.37 405.804 1540.35 402.466 1540.35 398.347C1540.35 394.228 1535.37 390.89 1529.23 390.89C1523.08 390.89 1518.1 394.228 1518.1 398.347C1518.1 402.466 1523.08 405.804 1529.23 405.804Z" fill="#FF6584"/>
<path d="M175.73 317.89C178.322 318.239 180.803 319.133 182.998 320.506C185.193 321.88 187.049 323.701 188.435 325.841C189.82 327.98 190.703 330.387 191.019 332.891C191.335 335.395 191.078 337.935 190.265 340.332L263.854 481.161L232.506 490.165L166.41 351.15C162.321 349.567 158.976 346.594 157.009 342.794C155.043 338.994 154.591 334.63 155.74 330.531C156.888 326.431 159.558 322.88 163.242 320.55C166.927 318.22 171.37 317.273 175.73 317.89L175.73 317.89Z" fill="#FFB6B6"/>
<path d="M295.406 557.18C295.406 557.18 304.528 554.77 295.506 537.527C288.284 523.723 252.444 434.973 237.51 419.048C239.288 416.575 240.162 413.602 239.993 410.598C239.825 407.594 238.624 404.73 236.581 402.455L198.98 428.48C197.787 438.522 202.523 446.317 206.64 446.166L218.059 471.829L247.215 560.001L288.845 559.035L295.406 557.18Z" fill="#FF5C85"/>
<path d="M283.65 605.094L287.314 637.842L285.158 680.783L383.86 669.483L393.135 605.094L381.318 605.207L283.65 605.094Z" fill="#FFB6B6"/>
<path d="M367.607 499.32L330.461 471.059L310.961 469.966L282.028 487.828L257.771 499.731L258.187 561.882L286.075 673.176L385.784 669.407L398.909 590.045C398.909 590.045 429.399 550.581 396.564 527.98L367.607 499.32Z" fill="#FF5C85"/>
<path d="M232.455 1199.65H254.035L264.303 1119.44H232.455V1199.65Z" fill="#FFB6B6"/>
<path d="M225.414 1185.41L259.889 1183.42V1197.66L292.667 1219.47C294.286 1220.55 295.505 1222.1 296.146 1223.89C296.788 1225.68 296.818 1227.62 296.233 1229.43C295.647 1231.24 294.477 1232.83 292.892 1233.95C291.307 1235.07 289.391 1235.68 287.424 1235.68H246.379L239.304 1221.6L236.542 1235.68H221.066L225.414 1185.41Z" fill="#2F2E41"/>
<path d="M353.67 1199.65H375.25L385.518 1119.44H353.67V1199.65Z" fill="#FFB6B6"/>
<path d="M346.628 1185.41L381.104 1183.42V1197.66L413.881 1219.47C415.5 1220.55 416.72 1222.1 417.361 1223.89C418.003 1225.68 418.033 1227.62 417.447 1229.43C416.862 1231.24 415.691 1232.83 414.107 1233.95C412.522 1235.07 410.606 1235.68 408.639 1235.68H367.594L360.519 1221.6L357.757 1235.68H342.281L346.628 1185.41Z" fill="#2F2E41"/>
<path d="M223.144 1130.48H223.379L227.529 1000.06C224.843 995.067 223.48 989.512 223.561 983.89C223.642 978.267 225.165 972.751 227.993 967.832L228.588 966.796L227.047 959.914C225.068 951.072 225.976 941.857 229.647 933.532L233.518 811.875C219.686 725.489 285.605 669.151 285.605 669.151H384.353L405.553 739.343C419.568 870.926 417.025 999.149 394.785 1123.38L395.391 1123.67C397.575 1124.4 398.511 1127.31 397.483 1130.18C396.456 1133.05 393.853 1134.79 391.67 1134.06L339.52 1132.31C337.336 1131.59 336.4 1128.67 337.428 1125.8C338.455 1122.93 341.058 1121.2 343.241 1121.92L346.787 1123.65L339.225 997.802L340.064 974.814L338.335 948.735L330.342 831.434L300.085 975.682L269.178 1131.93C270.031 1132.67 270.629 1133.65 270.894 1134.73C271.159 1135.81 271.079 1136.94 270.664 1137.97C270.248 1139 269.518 1139.89 268.568 1140.52C267.619 1141.14 266.495 1141.47 265.345 1141.47H223.144C221.632 1141.47 220.181 1140.89 219.112 1139.86C218.042 1138.83 217.441 1137.43 217.441 1135.98C217.441 1134.52 218.042 1133.12 219.112 1132.09C220.181 1131.06 221.632 1130.48 223.144 1130.48V1130.48Z" fill="#2F2E41"/>
<path d="M369.31 769.496C371.343 767.909 372.991 765.91 374.136 763.642C375.282 761.375 375.897 758.892 375.94 756.37C375.982 753.848 375.45 751.348 374.381 749.046C373.312 746.743 371.733 744.695 369.753 743.044L360.369 586.509L325.762 593.681L343.526 745.632C340.869 749.02 339.594 753.229 339.943 757.463C340.292 761.696 342.24 765.659 345.418 768.6C348.596 771.542 352.784 773.258 357.187 773.423C361.591 773.588 365.904 772.191 369.31 769.496H369.31Z" fill="#FFB6B6"/>
<path d="M343.79 505.005C343.79 505.005 352.895 502.536 354.393 521.793C355.593 537.209 372.38 631.059 368.108 652.124C370.954 653.359 373.294 655.472 374.757 658.129C376.22 660.787 376.725 663.838 376.191 666.802L330.049 663.191C323.652 655.18 323.539 646.149 327.147 644.232L323.197 616.569L300.992 526.537L337.176 506.676L343.79 505.005Z" fill="#FF5C85"/>
<path d="M313.833 466.755C339.613 466.755 360.512 446.616 360.512 421.772C360.512 396.929 339.613 376.789 313.833 376.789C288.053 376.789 267.154 396.929 267.154 421.772C267.154 446.616 288.053 466.755 313.833 466.755Z" fill="#FFB8B8"/>
<path d="M213.243 516.309C203.365 512.935 193.487 509.555 183.609 506.169C185.312 503.416 187.48 500.957 190.024 498.893C199.429 491.325 212.411 489.958 224.351 487.405C236.311 484.852 249.292 479.618 253.664 468.604C258.205 457.152 251.62 444.788 247.797 433.117C242.442 416.832 242.556 398.651 249.728 383.041C256.9 367.431 271.471 354.775 288.767 351.055C306.063 347.353 325.611 353.389 336.245 367.03C343.097 365.049 350.465 365.555 356.956 368.451C363.448 371.347 368.615 376.433 371.481 382.749C373.96 388.731 374.036 395.934 370.345 401.313C366.655 406.693 358.764 409.447 352.822 406.456L356.266 398.031C345.613 401.514 338.687 420.078 340.125 430.837C341.544 441.578 348.054 450.988 354.658 459.759C361.262 468.531 368.302 477.393 371.14 487.879C375.228 502.96 369.702 519.445 359.483 531.535C349.265 543.626 334.864 551.832 319.952 557.868C308.79 562.39 297.19 565.836 285.323 568.153C287.442 564.178 289.543 560.202 291.662 556.227L266.513 570.888C261.649 571.344 256.748 571.618 251.847 571.709C237.579 571.946 223.027 570.506 209.969 565.017C196.894 559.509 185.407 549.534 180.676 536.569C179.159 532.375 178.442 527.952 178.557 523.512C190.119 521.105 201.681 518.704 213.243 516.309Z" fill="#2F2E41"/>
<path d="M244.436 122.51C244.436 60.0784 196.854 0 138.547 0C80.2398 0 33.2871 60.0784 33.2871 122.51C33.2871 177.33 69.7346 223.024 118.096 233.354C115.332 241.044 113.764 249.087 113.445 257.22C113.445 274.388 123.43 258.114 138.547 258.114C153.664 258.114 168.188 274.388 168.188 257.22C167.844 248.783 166.173 240.445 163.232 232.492C209.784 220.708 244.436 175.956 244.436 122.51Z" fill="#FF5C85"/>
<path d="M116.578 235.958L162.385 236.95C166.16 237.031 166.159 231.379 162.385 231.297L116.578 230.306C112.802 230.224 112.803 235.876 116.578 235.958Z" fill="#3F3D56"/>
<path d="M584.621 1235.98C583.121 1240.26 1.61855 1239.86 0 1235.59C1.49832 1231.3 583 1231.7 584.621 1235.98Z" fill="#CCCCCC"/>
</g>
<defs>
<clipPath id="clip0_604_2">
<rect width="1911" height="1239" fill="white"/>
</clipPath>
</defs>
</svg>
